<svg width="24" height="19" viewBox="0 0 24 19" fill="none" role="img" xmlns="http://www.w3.org/2000/svg"><title>Chat with us on Discord.</title> <path d="M20.3175 1.99295C18.7875 1.30295 17.1475 0.79295 15.4325 0.50295C15.4172 0.500018 15.4014 0.501908 15.3872 0.508357C15.3731 0.514807 15.3613 0.525498 15.3535 0.53895C15.1435 0.90795 14.9095 1.38895 14.7455 1.76895C12.9266 1.49719 11.0774 1.49719 9.25848 1.76895C9.07582 1.34781 8.86983 0.937174 8.64148 0.53895C8.63374 0.525333 8.62203 0.5144 8.60792 0.50761C8.5938 0.500821 8.57795 0.498497 8.56248 0.50095C6.84848 0.79095 5.20848 1.30095 3.67748 1.99195C3.66431 1.99747 3.65314 2.0069 3.64548 2.01895C0.533481 6.59395 -0.319519 11.056 0.0994806 15.462C0.100647 15.4727 0.103996 15.4832 0.109326 15.4926C0.114655 15.5021 0.121853 15.5104 0.130481 15.517C1.94687 16.8394 3.97282 17.8468 6.12348 18.497C6.13847 18.5016 6.15451 18.5016 6.16949 18.4969C6.18448 18.4923 6.19772 18.4832 6.20748 18.4709C6.66948 17.8509 7.08148 17.1959 7.43348 16.5079C7.45448 16.4679 7.43448 16.4199 7.39248 16.4039C6.74649 16.1607 6.12057 15.8671 5.52048 15.5259C5.5097 15.5198 5.50061 15.5111 5.49404 15.5005C5.48746 15.49 5.48361 15.478 5.48281 15.4656C5.48202 15.4532 5.48432 15.4408 5.48949 15.4295C5.49467 15.4183 5.50257 15.4084 5.51248 15.4009C5.63848 15.3079 5.76448 15.211 5.88448 15.114C5.89528 15.1052 5.90829 15.0997 5.92206 15.0979C5.93584 15.0961 5.94983 15.0982 5.96248 15.104C9.88948 16.868 14.1425 16.868 18.0235 15.104C18.0362 15.0979 18.0503 15.0955 18.0643 15.0971C18.0782 15.0987 18.0915 15.1042 18.1025 15.1129C18.2225 15.2109 18.3475 15.3079 18.4745 15.4009C18.4845 15.4083 18.4925 15.418 18.4979 15.4292C18.5032 15.4403 18.5057 15.4527 18.5051 15.4651C18.5045 15.4774 18.5008 15.4895 18.4945 15.5001C18.4881 15.5107 18.4791 15.5196 18.4685 15.5259C17.8705 15.8699 17.2485 16.161 16.5955 16.403C16.5855 16.4066 16.5763 16.4123 16.5687 16.4198C16.561 16.4272 16.5551 16.4362 16.5512 16.4462C16.5473 16.4561 16.5456 16.4668 16.5462 16.4774C16.5467 16.4881 16.5496 16.4985 16.5545 16.5079C16.9145 17.195 17.3265 17.8489 17.7795 18.4699C17.7889 18.4827 17.802 18.4922 17.8171 18.4972C17.8321 18.5022 17.8483 18.5025 17.8635 18.4979C20.0178 17.8496 22.0471 16.8417 23.8655 15.517C23.8744 15.5107 23.8818 15.5027 23.8873 15.4934C23.8928 15.4841 23.8963 15.4737 23.8975 15.4629C24.3975 10.3689 23.0595 5.94295 20.3485 2.02095C20.3418 2.0082 20.3308 1.99827 20.3175 1.99295ZM8.02048 12.7789C6.83848 12.7789 5.86348 11.7099 5.86348 10.3989C5.86348 9.08695 6.81948 8.01895 8.02048 8.01895C9.23048 8.01895 10.1965 9.09595 10.1775 10.3989C10.1775 11.7109 9.22148 12.7789 8.02048 12.7789ZM15.9955 12.7789C14.8125 12.7789 13.8385 11.7099 13.8385 10.3989C13.8385 9.08695 14.7935 8.01895 15.9955 8.01895C17.2055 8.01895 18.1715 9.09595 18.1525 10.3989C18.1525 11.7109 17.2065 12.7789 15.9955 12.7789Z" fill="currentColor"></path></svg>